<mxfile host="app.diagrams.net" modified="2022-06-23T14:58:09.058Z" agent="5.0 (Windows NT 10.0; Win64; x64) AppleWebKit/537.36 (KHTML, like Gecko) Chrome/102.0.0.0 Safari/537.36" etag="WI1-ETtssYqC7aEyIfRx" version="20.0.3" type="github">
  <diagram id="C5RBs43oDa-KdzZeNtuy" name="Page-1">
    <mxGraphModel dx="865" dy="428" grid="1" gridSize="10" guides="1" tooltips="1" connect="1" arrows="1" fold="1" page="1" pageScale="1" pageWidth="827" pageHeight="1169" background="none" math="0" shadow="0">
      <root>
        <mxCell id="WIyWlLk6GJQsqaUBKTNV-0" />
        <mxCell id="WIyWlLk6GJQsqaUBKTNV-1" parent="WIyWlLk6GJQsqaUBKTNV-0" />
        <mxCell id="VW0pkkN9wsOGH8fwQ46L-15" value="" style="edgeStyle=orthogonalEdgeStyle;rounded=0;orthogonalLoop=1;jettySize=auto;html=1;" edge="1" parent="WIyWlLk6GJQsqaUBKTNV-1" source="VW0pkkN9wsOGH8fwQ46L-12" target="VW0pkkN9wsOGH8fwQ46L-14">
          <mxGeometry relative="1" as="geometry" />
        </mxCell>
        <mxCell id="VW0pkkN9wsOGH8fwQ46L-12" value="" style="strokeWidth=2;html=1;shape=mxgraph.flowchart.start_1;whiteSpace=wrap;" vertex="1" parent="WIyWlLk6GJQsqaUBKTNV-1">
          <mxGeometry x="360" y="10" width="100" height="60" as="geometry" />
        </mxCell>
        <mxCell id="VW0pkkN9wsOGH8fwQ46L-13" value="Başlangıç" style="text;html=1;strokeColor=none;fillColor=none;align=center;verticalAlign=middle;whiteSpace=wrap;rounded=0;" vertex="1" parent="WIyWlLk6GJQsqaUBKTNV-1">
          <mxGeometry x="380" y="25" width="60" height="30" as="geometry" />
        </mxCell>
        <mxCell id="VW0pkkN9wsOGH8fwQ46L-27" value="" style="edgeStyle=orthogonalEdgeStyle;rounded=0;orthogonalLoop=1;jettySize=auto;html=1;" edge="1" parent="WIyWlLk6GJQsqaUBKTNV-1" source="VW0pkkN9wsOGH8fwQ46L-14" target="VW0pkkN9wsOGH8fwQ46L-26">
          <mxGeometry relative="1" as="geometry" />
        </mxCell>
        <mxCell id="VW0pkkN9wsOGH8fwQ46L-14" value="" style="shape=parallelogram;html=1;strokeWidth=2;perimeter=parallelogramPerimeter;whiteSpace=wrap;rounded=1;arcSize=12;size=0.23;" vertex="1" parent="WIyWlLk6GJQsqaUBKTNV-1">
          <mxGeometry x="360" y="120" width="100" height="60" as="geometry" />
        </mxCell>
        <mxCell id="VW0pkkN9wsOGH8fwQ46L-16" value="input, &quot;su alma wp giriniz:&quot;" style="text;html=1;strokeColor=none;fillColor=none;align=center;verticalAlign=middle;whiteSpace=wrap;rounded=0;" vertex="1" parent="WIyWlLk6GJQsqaUBKTNV-1">
          <mxGeometry x="380" y="135" width="60" height="30" as="geometry" />
        </mxCell>
        <mxCell id="VW0pkkN9wsOGH8fwQ46L-59" value="" style="edgeStyle=orthogonalEdgeStyle;rounded=0;orthogonalLoop=1;jettySize=auto;html=1;" edge="1" parent="WIyWlLk6GJQsqaUBKTNV-1" source="VW0pkkN9wsOGH8fwQ46L-17">
          <mxGeometry relative="1" as="geometry">
            <mxPoint x="410" y="490" as="targetPoint" />
          </mxGeometry>
        </mxCell>
        <mxCell id="VW0pkkN9wsOGH8fwQ46L-17" value="" style="shape=parallelogram;html=1;strokeWidth=2;perimeter=parallelogramPerimeter;whiteSpace=wrap;rounded=1;arcSize=12;size=0.23;" vertex="1" parent="WIyWlLk6GJQsqaUBKTNV-1">
          <mxGeometry x="360" y="360" width="100" height="60" as="geometry" />
        </mxCell>
        <mxCell id="VW0pkkN9wsOGH8fwQ46L-19" value="input, &quot;su bırakma wp giriniz:&quot;" style="text;html=1;strokeColor=none;fillColor=none;align=center;verticalAlign=middle;whiteSpace=wrap;rounded=0;" vertex="1" parent="WIyWlLk6GJQsqaUBKTNV-1">
          <mxGeometry x="380" y="375" width="60" height="30" as="geometry" />
        </mxCell>
        <mxCell id="VW0pkkN9wsOGH8fwQ46L-26" value="" style="rhombus;whiteSpace=wrap;html=1;strokeWidth=2;rounded=1;arcSize=12;aspect=fixed;" vertex="1" parent="WIyWlLk6GJQsqaUBKTNV-1">
          <mxGeometry x="365.5" y="210" width="89" height="89" as="geometry" />
        </mxCell>
        <mxCell id="VW0pkkN9wsOGH8fwQ46L-28" value="" style="edgeStyle=orthogonalEdgeStyle;rounded=0;orthogonalLoop=1;jettySize=auto;html=1;endArrow=none;entryX=0.505;entryY=0.027;entryDx=0;entryDy=0;entryPerimeter=0;" edge="1" parent="WIyWlLk6GJQsqaUBKTNV-1" source="VW0pkkN9wsOGH8fwQ46L-14" target="VW0pkkN9wsOGH8fwQ46L-26">
          <mxGeometry relative="1" as="geometry">
            <mxPoint x="410" y="180" as="sourcePoint" />
            <mxPoint x="410" y="340" as="targetPoint" />
          </mxGeometry>
        </mxCell>
        <mxCell id="VW0pkkN9wsOGH8fwQ46L-29" value="WP DOĞRU GİRİLDİ Mİ?" style="text;html=1;strokeColor=none;fillColor=none;align=center;verticalAlign=middle;whiteSpace=wrap;rounded=0;" vertex="1" parent="WIyWlLk6GJQsqaUBKTNV-1">
          <mxGeometry x="380" y="240" width="60" height="30" as="geometry" />
        </mxCell>
        <mxCell id="VW0pkkN9wsOGH8fwQ46L-49" value="" style="endArrow=classic;html=1;rounded=0;entryX=0.5;entryY=0;entryDx=0;entryDy=0;exitX=0.503;exitY=0.975;exitDx=0;exitDy=0;exitPerimeter=0;" edge="1" parent="WIyWlLk6GJQsqaUBKTNV-1" source="VW0pkkN9wsOGH8fwQ46L-26" target="VW0pkkN9wsOGH8fwQ46L-17">
          <mxGeometry relative="1" as="geometry">
            <mxPoint x="410" y="300" as="sourcePoint" />
            <mxPoint x="460" y="320" as="targetPoint" />
          </mxGeometry>
        </mxCell>
        <mxCell id="VW0pkkN9wsOGH8fwQ46L-50" value="EVET" style="edgeLabel;resizable=0;html=1;align=center;verticalAlign=middle;labelBackgroundColor=#FFFF33;" connectable="0" vertex="1" parent="VW0pkkN9wsOGH8fwQ46L-49">
          <mxGeometry relative="1" as="geometry">
            <mxPoint y="-8" as="offset" />
          </mxGeometry>
        </mxCell>
        <mxCell id="VW0pkkN9wsOGH8fwQ46L-51" value="" style="endArrow=classic;html=1;rounded=0;exitX=0.964;exitY=0.497;exitDx=0;exitDy=0;exitPerimeter=0;entryX=0;entryY=0.5;entryDx=0;entryDy=0;" edge="1" parent="WIyWlLk6GJQsqaUBKTNV-1" source="VW0pkkN9wsOGH8fwQ46L-26" target="VW0pkkN9wsOGH8fwQ46L-66">
          <mxGeometry relative="1" as="geometry">
            <mxPoint x="454.5" y="254.5" as="sourcePoint" />
            <mxPoint x="554.5" y="254.5" as="targetPoint" />
          </mxGeometry>
        </mxCell>
        <mxCell id="VW0pkkN9wsOGH8fwQ46L-52" value="HAYIR" style="edgeLabel;resizable=0;html=1;align=center;verticalAlign=middle;labelBackgroundColor=#FFFF33;" connectable="0" vertex="1" parent="VW0pkkN9wsOGH8fwQ46L-51">
          <mxGeometry relative="1" as="geometry" />
        </mxCell>
        <mxCell id="VW0pkkN9wsOGH8fwQ46L-53" value="" style="rhombus;whiteSpace=wrap;html=1;strokeWidth=2;rounded=1;arcSize=12;aspect=fixed;" vertex="1" parent="WIyWlLk6GJQsqaUBKTNV-1">
          <mxGeometry x="366" y="489" width="89" height="89" as="geometry" />
        </mxCell>
        <mxCell id="VW0pkkN9wsOGH8fwQ46L-54" value="WP DOĞRU GİRİLDİ Mİ?" style="text;html=1;strokeColor=none;fillColor=none;align=center;verticalAlign=middle;whiteSpace=wrap;rounded=0;" vertex="1" parent="WIyWlLk6GJQsqaUBKTNV-1">
          <mxGeometry x="380.5" y="519" width="60" height="30" as="geometry" />
        </mxCell>
        <mxCell id="VW0pkkN9wsOGH8fwQ46L-55" value="" style="endArrow=classic;html=1;rounded=0;entryX=0.5;entryY=0;entryDx=0;entryDy=0;exitX=0.503;exitY=0.975;exitDx=0;exitDy=0;exitPerimeter=0;entryPerimeter=0;" edge="1" parent="WIyWlLk6GJQsqaUBKTNV-1" source="VW0pkkN9wsOGH8fwQ46L-53" target="VW0pkkN9wsOGH8fwQ46L-74">
          <mxGeometry relative="1" as="geometry">
            <mxPoint x="410.5" y="579" as="sourcePoint" />
            <mxPoint x="410.5" y="639" as="targetPoint" />
          </mxGeometry>
        </mxCell>
        <mxCell id="VW0pkkN9wsOGH8fwQ46L-56" value="EVET" style="edgeLabel;resizable=0;html=1;align=center;verticalAlign=middle;labelBackgroundColor=#FFFF33;" connectable="0" vertex="1" parent="VW0pkkN9wsOGH8fwQ46L-55">
          <mxGeometry relative="1" as="geometry">
            <mxPoint y="-8" as="offset" />
          </mxGeometry>
        </mxCell>
        <mxCell id="VW0pkkN9wsOGH8fwQ46L-57" value="" style="endArrow=classic;html=1;rounded=0;exitX=0.964;exitY=0.497;exitDx=0;exitDy=0;exitPerimeter=0;entryX=0;entryY=0.5;entryDx=0;entryDy=0;" edge="1" parent="WIyWlLk6GJQsqaUBKTNV-1" source="VW0pkkN9wsOGH8fwQ46L-53" target="VW0pkkN9wsOGH8fwQ46L-69">
          <mxGeometry relative="1" as="geometry">
            <mxPoint x="455" y="533.5" as="sourcePoint" />
            <mxPoint x="555" y="533.5" as="targetPoint" />
          </mxGeometry>
        </mxCell>
        <mxCell id="VW0pkkN9wsOGH8fwQ46L-58" value="HAYIR" style="edgeLabel;resizable=0;html=1;align=center;verticalAlign=middle;labelBackgroundColor=#FFFF33;" connectable="0" vertex="1" parent="VW0pkkN9wsOGH8fwQ46L-57">
          <mxGeometry relative="1" as="geometry" />
        </mxCell>
        <mxCell id="VW0pkkN9wsOGH8fwQ46L-66" value="" style="rounded=1;whiteSpace=wrap;html=1;labelBackgroundColor=none;" vertex="1" parent="WIyWlLk6GJQsqaUBKTNV-1">
          <mxGeometry x="560" y="225" width="120" height="60" as="geometry" />
        </mxCell>
        <mxCell id="VW0pkkN9wsOGH8fwQ46L-68" value="Görevden çık" style="text;html=1;strokeColor=none;fillColor=none;align=center;verticalAlign=middle;whiteSpace=wrap;rounded=0;labelBackgroundColor=none;" vertex="1" parent="WIyWlLk6GJQsqaUBKTNV-1">
          <mxGeometry x="580" y="239.5" width="80" height="30" as="geometry" />
        </mxCell>
        <mxCell id="VW0pkkN9wsOGH8fwQ46L-69" value="" style="rounded=1;whiteSpace=wrap;html=1;labelBackgroundColor=none;" vertex="1" parent="WIyWlLk6GJQsqaUBKTNV-1">
          <mxGeometry x="560" y="503.5" width="120" height="60" as="geometry" />
        </mxCell>
        <mxCell id="VW0pkkN9wsOGH8fwQ46L-70" value="Görevden çık" style="text;html=1;strokeColor=none;fillColor=none;align=center;verticalAlign=middle;whiteSpace=wrap;rounded=0;labelBackgroundColor=none;" vertex="1" parent="WIyWlLk6GJQsqaUBKTNV-1">
          <mxGeometry x="580" y="518" width="80" height="30" as="geometry" />
        </mxCell>
        <mxCell id="VW0pkkN9wsOGH8fwQ46L-74" value="" style="strokeWidth=2;html=1;shape=mxgraph.flowchart.decision;whiteSpace=wrap;labelBackgroundColor=none;aspect=fixed;" vertex="1" parent="WIyWlLk6GJQsqaUBKTNV-1">
          <mxGeometry x="360" y="670" width="100" height="100" as="geometry" />
        </mxCell>
        <mxCell id="VW0pkkN9wsOGH8fwQ46L-75" value="&lt;font style=&quot;font-size: 10px;&quot;&gt;İHA ARM EDİLEBİLİR DURUMDA MI?&lt;/font&gt;" style="text;html=1;strokeColor=none;fillColor=none;align=center;verticalAlign=middle;whiteSpace=wrap;rounded=0;labelBackgroundColor=none;" vertex="1" parent="WIyWlLk6GJQsqaUBKTNV-1">
          <mxGeometry x="379.5" y="705" width="60" height="30" as="geometry" />
        </mxCell>
        <mxCell id="VW0pkkN9wsOGH8fwQ46L-80" value="" style="endArrow=classic;html=1;rounded=0;fontSize=10;" edge="1" parent="WIyWlLk6GJQsqaUBKTNV-1">
          <mxGeometry relative="1" as="geometry">
            <mxPoint x="460" y="719.76" as="sourcePoint" />
            <mxPoint x="630" y="720" as="targetPoint" />
          </mxGeometry>
        </mxCell>
        <mxCell id="VW0pkkN9wsOGH8fwQ46L-81" value="HAYIR" style="edgeLabel;resizable=0;html=1;align=center;verticalAlign=middle;labelBackgroundColor=#FFFF33;fontSize=10;" connectable="0" vertex="1" parent="VW0pkkN9wsOGH8fwQ46L-80">
          <mxGeometry relative="1" as="geometry" />
        </mxCell>
        <mxCell id="VW0pkkN9wsOGH8fwQ46L-84" value="" style="group" vertex="1" connectable="0" parent="WIyWlLk6GJQsqaUBKTNV-1">
          <mxGeometry x="560" y="600" width="120" height="60" as="geometry" />
        </mxCell>
        <mxCell id="VW0pkkN9wsOGH8fwQ46L-82" value="" style="rounded=1;whiteSpace=wrap;html=1;labelBackgroundColor=none;" vertex="1" parent="VW0pkkN9wsOGH8fwQ46L-84">
          <mxGeometry width="120" height="60" as="geometry" />
        </mxCell>
        <mxCell id="VW0pkkN9wsOGH8fwQ46L-83" value="Görevden çık" style="text;html=1;strokeColor=none;fillColor=none;align=center;verticalAlign=middle;whiteSpace=wrap;rounded=0;labelBackgroundColor=none;" vertex="1" parent="VW0pkkN9wsOGH8fwQ46L-84">
          <mxGeometry x="20" y="14.5" width="80" height="30" as="geometry" />
        </mxCell>
      </root>
    </mxGraphModel>
  </diagram>
</mxfile>
